<svg width="234" height="234" viewBox="0 0 234 234" fill="none" xmlns="http://www.w3.org/2000/svg">
<g clip-path="url(#clip0_95_240)">
<path d="M223.29 0H10.71C4.79503 0 0 4.79503 0 10.71V223.29C0 229.205 4.79503 234 10.71 234H223.29C229.205 234 234 229.205 234 223.29V10.71C234 4.79503 229.205 0 223.29 0Z" fill="url(#paint0_linear_95_240)"/>
<path opacity="0.85" d="M113.86 189.3L81.17 171.47C76.67 169.02 76.89 162.49 81.54 160.34L114.31 145.18C115.97 144.41 117.89 144.41 119.55 145.18L152.3 160.33C156.95 162.48 157.16 169.02 152.66 171.47L119.83 189.31C117.97 190.32 115.72 190.32 113.87 189.31L113.86 189.3Z" fill="#8CD6ED"/>
<path d="M168.12 97.8C168.12 106.86 168.08 115.92 168.15 124.98C168.17 126.92 167.58 128.06 165.9 128.96C156.61 133.93 147.38 139.01 138.13 144.06C131.56 147.65 125 151.23 118.45 154.85C117.41 155.42 116.49 155.41 115.45 154.85C99.6099 146.18 83.7799 137.5 67.9099 128.89C66.3199 128.03 65.7599 126.92 65.7699 125.08C65.8199 106.81 65.8199 88.53 65.7699 70.26C65.7699 68.34 66.3899 67.27 68.0799 66.49C83.8099 59.19 99.5099 51.81 115.22 44.44C116.26 43.95 117.19 43.71 118.33 44.25C134.26 51.75 150.2 59.22 166.16 66.65C167.62 67.33 168.15 68.3 168.14 69.93C168.1 79.22 168.12 88.51 168.12 97.8ZM114.99 123.46C114.99 115.09 114.97 106.72 115.01 98.35C115.01 97.33 114.73 96.77 113.84 96.3C110.19 94.38 106.58 92.38 102.96 90.4C92.2599 84.55 81.5599 78.7 70.8499 72.85C69.8599 72.31 69.7499 72.38 69.7399 73.57C69.7399 90.42 69.7399 107.28 69.7199 124.13C69.7199 124.97 70.0099 125.45 70.7199 125.83C85.0599 133.63 99.3799 141.46 113.71 149.28C114.97 149.97 114.98 149.96 114.98 148.45C114.98 140.12 114.98 131.79 114.98 123.46H114.99ZM118.93 123.26C118.93 130.59 118.93 137.93 118.93 145.26C118.93 146.45 118.96 147.64 118.93 148.83C118.9 149.79 119.24 149.91 119.95 149.45C120.04 149.39 120.14 149.34 120.24 149.29C134.57 141.47 148.89 133.63 163.23 125.84C164.09 125.37 164.2 124.75 164.2 123.89C164.19 107.23 164.2 90.57 164.2 73.91C164.2 72.29 164.18 72.28 162.79 73.04C148.53 80.83 134.27 88.62 119.99 96.38C119.18 96.82 118.94 97.36 118.94 98.27C118.97 106.6 118.95 114.93 118.95 123.26H118.93ZM72.2899 69.01C72.7199 69.27 72.9599 69.43 73.2099 69.57C87.5299 77.41 101.86 85.24 116.17 93.09C116.76 93.41 117.23 93.39 117.8 93.07C120.73 91.43 123.67 89.83 126.62 88.22C137.39 82.34 148.16 76.46 158.93 70.57C159.79 70.1 160.72 69.74 161.56 69.01C161.24 68.84 160.99 68.69 160.73 68.57C146.59 61.94 132.43 55.33 118.3 48.66C117.24 48.16 116.39 48.32 115.41 48.78C105.6 53.4 95.7799 57.99 85.9599 62.6C81.4699 64.7 76.9799 66.81 72.2899 69.01Z" fill="#F2FAFE"/>
<path d="M70.3699 67.91C70.8199 68.18 71.0699 68.35 71.3399 68.49C86.2999 76.68 101.27 84.86 116.22 93.06C116.84 93.4 117.32 93.37 117.92 93.04C120.98 91.33 124.05 89.65 127.13 87.97C138.38 81.83 149.64 75.69 160.88 69.53C161.78 69.04 162.75 68.66 163.63 67.9C163.29 67.72 163.03 67.57 162.77 67.44C147.99 60.51 133.21 53.6 118.45 46.64C117.34 46.12 116.46 46.28 115.43 46.77C105.18 51.6 94.9199 56.4 84.6699 61.2C79.9799 63.4 75.2899 65.6 70.3899 67.89L70.3699 67.91Z" fill="#B6E3F3"/>
<path d="M69.9199 127.5L113.71 151.3C114.29 151.63 115 151.21 115 150.55V96.23C115 95.91 114.82 95.62 114.54 95.47L69.6899 71.43C69.1099 71.12 68.4099 71.54 68.4099 72.19V124.97C68.4099 126.03 68.9899 127 69.9099 127.5H69.9199Z" fill="#8CD6ED"/>
<path d="M163.99 127.26L120.2 151.06C119.62 151.39 118.91 150.97 118.91 150.31V95.99C118.91 95.67 119.09 95.38 119.37 95.23L164.22 71.19C164.8 70.88 165.5 71.3 165.5 71.95V124.73C165.5 125.79 164.92 126.76 164 127.26H163.99Z" fill="#8CD6ED"/>
</g>
<defs>
<linearGradient id="paint0_linear_95_240" x1="117" y1="230.68" x2="117" y2="-3.32" gradientUnits="userSpaceOnUse">
<stop stop-color="#A2DCEE"/>
<stop offset="0.32" stop-color="#A7DEF0"/>
<stop offset="0.89" stop-color="#B6E4F4"/>
</linearGradient>
<clipPath id="clip0_95_240">
<rect width="234" height="234" fill="white"/>
</clipPath>
</defs>
</svg>
