<svg width="266" height="266" viewBox="0 0 266 266" fill="none" xmlns="http://www.w3.org/2000/svg">
<g clip-path="url(#clip0_83_198)">
<path d="M255.29 0H10.71C4.79503 0 0 4.79503 0 10.71V255.29C0 261.205 4.79503 266 10.71 266H255.29C261.205 266 266 261.205 266 255.29V10.71C266 4.79503 261.205 0 255.29 0Z" fill="url(#paint0_linear_83_198)"/>
<path d="M190.05 231.65C165.97 230.98 141.88 230.31 117.8 229.64C114.21 229.54 112.26 225.42 114.45 222.57C125.44 208.29 137.29 190.44 147.95 168.89C155.89 152.83 161.73 137.66 166.05 124.1C166.64 122.25 168.39 121.02 170.33 121.07L239.08 122.76C241.97 122.83 243.99 125.63 243.18 128.4C238.94 142.79 233.11 159.06 224.99 176.4C214.96 197.82 203.88 215.62 193.72 229.84C192.87 231.02 191.49 231.7 190.04 231.66L190.05 231.65Z" fill="#F1FAFE" stroke="#E4F4FC" stroke-width="2" stroke-miterlimit="10"/>
<path d="M220.2 157.77L197.79 157.22C195.96 157.18 194.82 155.21 195.7 153.61C197.19 150.91 198.67 147.94 200.08 144.69C201.4 141.65 202.5 138.73 203.41 135.99C203.75 134.96 204.73 134.29 205.81 134.33C212.79 134.58 219.77 134.83 226.75 135.08C228.25 135.13 229.34 136.51 229.06 137.99C228.53 140.79 227.73 143.96 226.52 147.36C225.25 150.92 223.79 153.98 222.38 156.53C221.94 157.32 221.09 157.8 220.19 157.78L220.2 157.77Z" fill="#E4F4FC"/>
<path d="M171.98 136.31C175.47 136.5 179.12 136.62 182.93 136.63C187.21 136.64 191.3 136.52 195.18 136.31" fill="#F1FAFE"/>
<path d="M171.98 136.31C175.47 136.5 179.12 136.62 182.93 136.63C187.21 136.64 191.3 136.52 195.18 136.31" stroke="#E4F4FC" stroke-width="2" stroke-miterlimit="10" stroke-linecap="round"/>
<path d="M170.83 141.88C173.7 142.11 176.71 142.28 179.84 142.37C183.37 142.47 186.74 142.45 189.93 142.35" fill="#F1FAFE"/>
<path d="M170.83 141.88C173.7 142.11 176.71 142.28 179.84 142.37C183.37 142.47 186.74 142.45 189.93 142.35" stroke="#E4F4FC" stroke-width="2" stroke-miterlimit="10" stroke-linecap="round"/>
<path d="M162.54 166.49C170.26 167.04 178.35 167.45 186.79 167.68C196.28 167.94 205.34 167.94 213.94 167.76" fill="#F1FAFE"/>
<path d="M162.54 166.49C170.26 167.04 178.35 167.45 186.79 167.68C196.28 167.94 205.34 167.94 213.94 167.76" stroke="#E4F4FC" stroke-width="2" stroke-miterlimit="10" stroke-linecap="round"/>
<path d="M160.01 173.76C167.85 174.32 176.08 174.73 184.66 174.97C194.31 175.23 203.52 175.24 212.26 175.05" fill="#F1FAFE"/>
<path d="M160.01 173.76C167.85 174.32 176.08 174.73 184.66 174.97C194.31 175.23 203.52 175.24 212.26 175.05" stroke="#E4F4FC" stroke-width="2" stroke-miterlimit="10" stroke-linecap="round"/>
<path d="M156.28 183.73C164.12 184.29 172.35 184.7 180.93 184.94C190.58 185.2 199.79 185.21 208.53 185.02" fill="#F1FAFE"/>
<path d="M156.28 183.73C164.12 184.29 172.35 184.7 180.93 184.94C190.58 185.2 199.79 185.21 208.53 185.02" stroke="#E4F4FC" stroke-width="2" stroke-miterlimit="10" stroke-linecap="round"/>
<path d="M152.47 189.78C160.31 190.34 168.54 190.75 177.12 190.99C186.77 191.25 195.98 191.26 204.72 191.07" fill="#F1FAFE"/>
<path d="M152.47 189.78C160.31 190.34 168.54 190.75 177.12 190.99C186.77 191.25 195.98 191.26 204.72 191.07" stroke="#E4F4FC" stroke-width="2" stroke-miterlimit="10" stroke-linecap="round"/>
<path d="M148.71 196.68C156.55 197.24 164.78 197.65 173.36 197.89C183.01 198.15 192.22 198.16 200.96 197.97" fill="#F1FAFE"/>
<path d="M148.71 196.68C156.55 197.24 164.78 197.65 173.36 197.89C183.01 198.15 192.22 198.16 200.96 197.97" stroke="#E4F4FC" stroke-width="2" stroke-miterlimit="10" stroke-linecap="round"/>
<path d="M159.24 97.73V77.34" stroke="white" stroke-width="4" stroke-miterlimit="10" stroke-linecap="round"/>
<path d="M133.1 107.34L119.99 91.72" stroke="white" stroke-width="4" stroke-miterlimit="10" stroke-linecap="round"/>
<path d="M119.24 131.5L99.1599 127.96" stroke="white" stroke-width="4" stroke-miterlimit="10" stroke-linecap="round"/>
<path d="M145.55 176.76L138.58 195.92" stroke="white" stroke-width="4" stroke-miterlimit="10" stroke-linecap="round"/>
<path d="M173.41 176.68L180.38 195.83" stroke="white" stroke-width="4" stroke-miterlimit="10" stroke-linecap="round"/>
<path d="M194.69 158.71L212.35 168.9" stroke="white" stroke-width="4" stroke-miterlimit="10" stroke-linecap="round"/>
<path d="M199.45 131.26L219.52 127.72" stroke="white" stroke-width="4" stroke-miterlimit="10" stroke-linecap="round"/>
<path d="M185.45 107.18L198.55 91.56" stroke="white" stroke-width="4" stroke-miterlimit="10" stroke-linecap="round"/>
<path d="M145.1 100.22L141.23 89.61" stroke="white" stroke-width="4" stroke-miterlimit="10" stroke-linecap="round"/>
<path d="M123.86 118.34L114.08 112.69" stroke="white" stroke-width="4" stroke-miterlimit="10" stroke-linecap="round"/>
<path d="M119.24 145.86L108.11 147.82" stroke="white" stroke-width="4" stroke-miterlimit="10" stroke-linecap="round"/>
<path d="M133.39 169.92L126.13 178.58" stroke="white" stroke-width="4" stroke-miterlimit="10" stroke-linecap="round"/>
<path d="M159.69 179.25V190.55" stroke="white" stroke-width="4" stroke-miterlimit="10" stroke-linecap="round"/>
<path d="M185.84 169.5L193.11 178.15" stroke="white" stroke-width="4" stroke-miterlimit="10" stroke-linecap="round"/>
<path d="M199.6 145.21L210.73 147.18" stroke="white" stroke-width="4" stroke-miterlimit="10" stroke-linecap="round"/>
<path d="M194.53 117.77L204.32 112.12" stroke="white" stroke-width="4" stroke-miterlimit="10" stroke-linecap="round"/>
<path d="M173.01 100L176.87 89.38" stroke="white" stroke-width="4" stroke-miterlimit="10" stroke-linecap="round"/>
<path opacity="0.53" d="M158.24 161.81C172.147 161.81 183.42 150.537 183.42 136.63C183.42 122.723 172.147 111.45 158.24 111.45C144.334 111.45 133.06 122.723 133.06 136.63C133.06 150.537 144.334 161.81 158.24 161.81Z" fill="#E4F4FC"/>
<path d="M158.35 162.25C172.803 162.25 184.52 150.533 184.52 136.08C184.52 121.627 172.803 109.91 158.35 109.91C143.897 109.91 132.18 121.627 132.18 136.08C132.18 150.533 143.897 162.25 158.35 162.25Z" stroke="#E4F4FC" stroke-width="6" stroke-miterlimit="10" stroke-linecap="round"/>
<path d="M135.85 154.9L109.09 176.36" stroke="#E4F4FC" stroke-width="12" stroke-miterlimit="10" stroke-linecap="round"/>
<path opacity="0.33" d="M144.05 143.29C145.88 148.43 150.65 152.1 156.23 152.1C156.95 152.1 157.66 152.04 158.35 151.92" stroke="#E2ECED" stroke-width="3" stroke-miterlimit="10" stroke-linecap="round"/>
<path d="M150.55 73.78C150.55 73.78 133.6 70.07 133.57 70.07H74.4201C67.0701 70.07 61.1201 64.74 61.1201 58.16V36.37C61.1201 29.79 67.0801 24.46 74.4201 24.46H130.78C138.13 24.46 144.08 29.79 144.08 36.37L144.93 61.8L151.17 73.14C151.31 73.5 150.97 73.85 150.55 73.79V73.78Z" fill="#8CD6ED" stroke="#88D0E7" stroke-width="2" stroke-miterlimit="10"/>
<path d="M21.4401 107.48C21.4401 107.48 38.3901 103.77 38.4201 103.77H97.5701C104.92 103.77 110.87 98.44 110.87 91.86V70.07C110.87 63.49 104.91 58.16 97.5701 58.16H41.2101C33.8601 58.16 27.9101 63.49 27.9101 70.07L27.0601 95.5L20.8201 106.84C20.6801 107.2 21.0201 107.55 21.4401 107.49V107.48Z" fill="#F1FAFE" stroke="#E4F4FC" stroke-width="2" stroke-miterlimit="10"/>
<path d="M54.6401 88.614C54.0521 88.614 53.7641 88.266 53.7641 87.798V87.618C53.7641 87.15 54.0521 86.802 54.6401 86.802C55.2281 86.802 55.5161 87.15 55.5161 87.618V87.798C55.5161 88.266 55.2281 88.614 54.6401 88.614ZM58.1206 88.614C57.5326 88.614 57.2446 88.266 57.2446 87.798V87.618C57.2446 87.15 57.5326 86.802 58.1206 86.802C58.7086 86.802 58.9966 87.15 58.9966 87.618V87.798C58.9966 88.266 58.7086 88.614 58.1206 88.614ZM61.6011 88.614C61.0131 88.614 60.7251 88.266 60.7251 87.798V87.618C60.7251 87.15 61.0131 86.802 61.6011 86.802C62.1891 86.802 62.4771 87.15 62.4771 87.618V87.798C62.4771 88.266 62.1891 88.614 61.6011 88.614ZM65.7038 85.842H64.4558V83.934C65.7398 83.874 66.4718 83.394 66.4718 82.434V82.266C66.4718 81.534 65.9798 81.102 65.2358 81.102C64.4438 81.102 63.9518 81.63 63.7838 82.338L62.6438 81.882C62.9318 80.886 63.7358 79.95 65.2838 79.95C66.8558 79.95 67.8638 80.886 67.8638 82.302C67.8638 83.754 66.7838 84.546 65.7038 84.738V85.842ZM65.0918 88.614C64.4798 88.614 64.2158 88.278 64.2158 87.822V87.618C64.2158 87.162 64.4798 86.826 65.0918 86.826C65.7038 86.826 65.9678 87.162 65.9678 87.618V87.822C65.9678 88.278 65.7038 88.614 65.0918 88.614Z" fill="#E4F4FC"/>
</g>
<defs>
<linearGradient id="paint0_linear_83_198" x1="133" y1="262.22" x2="133" y2="-3.78" gradientUnits="userSpaceOnUse">
<stop stop-color="#A2DCEE"/>
<stop offset="0.32" stop-color="#A7DEF0"/>
<stop offset="0.89" stop-color="#B6E4F4"/>
</linearGradient>
<clipPath id="clip0_83_198">
<rect width="266" height="266" fill="white"/>
</clipPath>
</defs>
</svg>
