<svg width="266" height="266" viewBox="0 0 266 266" fill="none" xmlns="http://www.w3.org/2000/svg">
<path d="M255.29 0H10.71C4.79503 0 0 4.79503 0 10.71V255.29C0 261.205 4.79503 266 10.71 266H255.29C261.205 266 266 261.205 266 255.29V10.71C266 4.79503 261.205 0 255.29 0Z" fill="url(#paint0_linear_208_275)"/>
<path d="M236.93 50.1602H29.08C24.5016 50.1602 20.79 53.8717 20.79 58.4502V207.56C20.79 212.139 24.5016 215.85 29.08 215.85H236.93C241.508 215.85 245.22 212.139 245.22 207.56V58.4502C245.22 53.8717 241.508 50.1602 236.93 50.1602Z" fill="#E4F5FD"/>
<path d="M20.79 59.9302H245.22V207.56C245.22 212.14 241.5 215.85 236.93 215.85H29.08C24.5 215.85 20.79 212.13 20.79 207.56V59.9302Z" fill="#FDFEFF"/>
<path d="M20.79 59.9302H169.52V215.85H29.08C24.5 215.85 20.79 212.13 20.79 207.56V59.9302Z" fill="#F2FAFE"/>
<path d="M214.45 77.7202H151.57C147.362 77.7202 143.95 81.1318 143.95 85.3402V182.55C143.95 186.759 147.362 190.17 151.57 190.17H214.45C218.658 190.17 222.07 186.759 222.07 182.55V85.3402C222.07 81.1318 218.658 77.7202 214.45 77.7202Z" fill="white" stroke="#E4F4FC" stroke-width="2" stroke-miterlimit="10"/>
<path d="M209.07 156.59C209.07 156.59 202.64 155.18 202.63 155.18H180.2C177.41 155.18 175.16 153.16 175.16 150.66V142.4C175.16 139.9 177.42 137.88 180.2 137.88H201.57C204.36 137.88 206.61 139.9 206.61 142.4L206.93 152.04L209.29 156.34C209.34 156.48 209.21 156.61 209.06 156.58L209.07 156.59Z" fill="#8CD6ED" stroke="#88D0E7" stroke-width="2" stroke-miterlimit="10"/>
<path d="M160.11 169.37C160.11 169.37 166.54 167.96 166.55 167.96H188.98C191.77 167.96 194.02 165.94 194.02 163.44V155.18C194.02 152.68 191.76 150.66 188.98 150.66H167.61C164.82 150.66 162.57 152.68 162.57 155.18L162.25 164.82L159.89 169.12C159.84 169.26 159.97 169.39 160.12 169.36L160.11 169.37Z" fill="#F1FAFE" stroke="#E4F4FC" stroke-width="2" stroke-miterlimit="10"/>
<path d="M173.78 162.924C173.192 162.924 172.904 162.576 172.904 162.108V161.928C172.904 161.46 173.192 161.112 173.78 161.112C174.368 161.112 174.656 161.46 174.656 161.928V162.108C174.656 162.576 174.368 162.924 173.78 162.924ZM177.261 162.924C176.673 162.924 176.385 162.576 176.385 162.108V161.928C176.385 161.46 176.673 161.112 177.261 161.112C177.849 161.112 178.137 161.46 178.137 161.928V162.108C178.137 162.576 177.849 162.924 177.261 162.924ZM180.741 162.924C180.153 162.924 179.865 162.576 179.865 162.108V161.928C179.865 161.46 180.153 161.112 180.741 161.112C181.329 161.112 181.617 161.46 181.617 161.928V162.108C181.617 162.576 181.329 162.924 180.741 162.924ZM184.844 160.152H183.596V158.244C184.88 158.184 185.612 157.704 185.612 156.744V156.576C185.612 155.844 185.12 155.412 184.376 155.412C183.584 155.412 183.092 155.94 182.924 156.648L181.784 156.192C182.072 155.196 182.876 154.26 184.424 154.26C185.996 154.26 187.004 155.196 187.004 156.612C187.004 158.064 185.924 158.856 184.844 159.048V160.152ZM184.232 162.924C183.62 162.924 183.356 162.588 183.356 162.132V161.928C183.356 161.472 183.62 161.136 184.232 161.136C184.844 161.136 185.108 161.472 185.108 161.928V162.132C185.108 162.588 184.844 162.924 184.232 162.924Z" fill="#E4F4FC"/>
<path d="M119.62 103.75H44.05C42.9068 103.75 41.98 104.677 41.98 105.82V125.93C41.98 127.073 42.9068 128 44.05 128H119.62C120.763 128 121.69 127.073 121.69 125.93V105.82C121.69 104.677 120.763 103.75 119.62 103.75Z" fill="white" stroke="#E4F4FC" stroke-width="2" stroke-miterlimit="10"/>
<path d="M68.61 103.75H44.05C42.9068 103.75 41.98 104.677 41.98 105.82V125.93C41.98 127.073 42.9068 128 44.05 128H68.61C69.7532 128 70.68 127.073 70.68 125.93V105.82C70.68 104.677 69.7532 103.75 68.61 103.75Z" fill="white" stroke="#E4F4FC" stroke-width="2" stroke-miterlimit="10"/>
<path d="M119.62 133.79H44.05C42.9068 133.79 41.98 134.717 41.98 135.86V155.97C41.98 157.113 42.9068 158.04 44.05 158.04H119.62C120.763 158.04 121.69 157.113 121.69 155.97V135.86C121.69 134.717 120.763 133.79 119.62 133.79Z" fill="white" stroke="#E4F4FC" stroke-width="2" stroke-miterlimit="10"/>
<path d="M68.61 133.79H44.05C42.9068 133.79 41.98 134.717 41.98 135.86V155.97C41.98 157.113 42.9068 158.04 44.05 158.04H68.61C69.7532 158.04 70.68 157.113 70.68 155.97V135.86C70.68 134.717 69.7532 133.79 68.61 133.79Z" fill="white" stroke="#E4F4FC" stroke-width="2" stroke-miterlimit="10"/>
<path d="M119.62 163.84H44.05C42.9068 163.84 41.98 164.767 41.98 165.91V186.02C41.98 187.164 42.9068 188.09 44.05 188.09H119.62C120.763 188.09 121.69 187.164 121.69 186.02V165.91C121.69 164.767 120.763 163.84 119.62 163.84Z" fill="white" stroke="#E4F4FC" stroke-width="2" stroke-miterlimit="10"/>
<path d="M68.61 163.84H44.05C42.9068 163.84 41.98 164.767 41.98 165.91V186.02C41.98 187.164 42.9068 188.09 44.05 188.09H68.61C69.7532 188.09 70.68 187.164 70.68 186.02V165.91C70.68 164.767 69.7532 163.84 68.61 163.84Z" fill="white" stroke="#E4F4FC" stroke-width="2" stroke-miterlimit="10"/>
<path d="M43.0368 88.8804V80.1531H46.0879C46.6959 80.1531 47.1973 80.2582 47.5922 80.4684C47.9871 80.6758 48.2811 80.9557 48.4743 81.3079C48.6675 81.6574 48.7641 82.0451 48.7641 82.4713C48.7641 82.8463 48.6973 83.1559 48.5638 83.4003C48.4331 83.6446 48.2598 83.8378 48.0439 83.9798C47.8308 84.1218 47.5993 84.227 47.3493 84.2951V84.3804C47.6163 84.3974 47.8848 84.4912 48.1547 84.6616C48.4246 84.8321 48.6504 85.0764 48.8323 85.3946C49.0141 85.7128 49.105 86.102 49.105 86.5622C49.105 86.9997 49.0055 87.3932 48.8067 87.7426C48.6078 88.092 48.2939 88.369 47.8649 88.5736C47.4359 88.7781 46.8777 88.8804 46.1902 88.8804H43.0368ZM44.0936 87.9429H46.1902C46.8805 87.9429 47.3706 87.8093 47.6604 87.5423C47.953 87.2724 48.0993 86.9457 48.0993 86.5622C48.0993 86.2667 48.024 85.994 47.8734 85.744C47.7229 85.4912 47.5084 85.2895 47.23 85.1389C46.9516 84.9855 46.622 84.9088 46.2413 84.9088H44.0936V87.9429ZM44.0936 83.9883H46.0538C46.372 83.9883 46.659 83.9258 46.9146 83.8008C47.1732 83.6758 47.3777 83.4997 47.5283 83.2724C47.6817 83.0451 47.7584 82.7781 47.7584 82.4713C47.7584 82.0878 47.6249 81.7625 47.3578 81.4954C47.0908 81.2255 46.6675 81.0906 46.0879 81.0906H44.0936V83.9883ZM58.2051 84.5167C58.2051 85.4372 58.0389 86.2326 57.7065 86.9031C57.3742 87.5736 56.9182 88.0906 56.3386 88.4542C55.7591 88.8179 55.0972 88.9997 54.3529 88.9997C53.6085 88.9997 52.9466 88.8179 52.3671 88.4542C51.7875 88.0906 51.3315 87.5736 50.9992 86.9031C50.6668 86.2326 50.5006 85.4372 50.5006 84.5167C50.5006 83.5963 50.6668 82.8008 50.9992 82.1304C51.3315 81.4599 51.7875 80.9429 52.3671 80.5792C52.9466 80.2156 53.6085 80.0338 54.3529 80.0338C55.0972 80.0338 55.7591 80.2156 56.3386 80.5792C56.9182 80.9429 57.3742 81.4599 57.7065 82.1304C58.0389 82.8008 58.2051 83.5963 58.2051 84.5167ZM57.1824 84.5167C57.1824 83.7611 57.056 83.1233 56.8031 82.6034C56.5531 82.0835 56.2136 81.69 55.7847 81.423C55.3585 81.1559 54.8813 81.0224 54.3529 81.0224C53.8244 81.0224 53.3457 81.1559 52.9168 81.423C52.4906 81.69 52.1511 82.0835 51.8983 82.6034C51.6483 83.1233 51.5233 83.7611 51.5233 84.5167C51.5233 85.2724 51.6483 85.9102 51.8983 86.4301C52.1511 86.95 52.4906 87.3434 52.9168 87.6105C53.3457 87.8775 53.8244 88.0111 54.3529 88.0111C54.8813 88.0111 55.3585 87.8775 55.7847 87.6105C56.2136 87.3434 56.5531 86.95 56.8031 86.4301C57.056 85.9102 57.1824 85.2724 57.1824 84.5167ZM59.9299 88.8804H58.822L62.0265 80.1531H63.1174L66.322 88.8804H65.214L62.606 81.5338H62.5379L59.9299 88.8804ZM60.339 85.4713H64.8049V86.4088H60.339V85.4713ZM67.6813 88.8804V80.1531H70.6302C71.312 80.1531 71.8717 80.2696 72.3092 80.5025C72.7467 80.7326 73.0705 81.0494 73.2808 81.4528C73.491 81.8562 73.5961 82.315 73.5961 82.8292C73.5961 83.3434 73.491 83.7994 73.2808 84.1971C73.0705 84.5949 72.7481 84.9074 72.3134 85.1346C71.8788 85.3591 71.3234 85.4713 70.6472 85.4713H68.2609V84.5167H70.6131C71.0791 84.5167 71.4541 84.4486 71.7381 84.3122C72.0251 84.1758 72.2325 83.9826 72.3603 83.7326C72.491 83.4798 72.5563 83.1787 72.5563 82.8292C72.5563 82.4798 72.491 82.1744 72.3603 81.913C72.2296 81.6517 72.0208 81.45 71.7339 81.3079C71.447 81.163 71.0677 81.0906 70.5961 81.0906H68.7381V88.8804H67.6813ZM71.7893 84.9599L73.937 88.8804H72.7097L70.5961 84.9599H71.7893ZM78.0503 88.8804H75.3571V80.1531H78.1696C79.0162 80.1531 79.7406 80.3278 80.3429 80.6772C80.9452 81.0238 81.4068 81.5224 81.7278 82.173C82.0489 82.8207 82.2094 83.5963 82.2094 84.4997C82.2094 85.4088 82.0475 86.1915 81.7236 86.8477C81.3997 87.5011 80.9281 88.004 80.3088 88.3562C79.6895 88.7057 78.9367 88.8804 78.0503 88.8804ZM76.4139 87.9429H77.9821C78.7037 87.9429 79.3017 87.8037 79.7761 87.5253C80.2506 87.2468 80.6043 86.8505 80.8372 86.3363C81.0702 85.8221 81.1867 85.2099 81.1867 84.4997C81.1867 83.7951 81.0716 83.1886 80.8415 82.6801C80.6114 82.1687 80.2676 81.7767 79.8102 81.504C79.3528 81.2284 78.7832 81.0906 78.1014 81.0906H76.4139V87.9429ZM82.822 80.1531H84.0322L86.4526 84.227H86.5549L88.9754 80.1531H90.1856L87.0322 85.2838V88.8804H85.9754V85.2838L82.822 80.1531Z" fill="#127294"/>
<path d="M194.65 87.1899H171.35C167.142 87.1899 163.73 90.6015 163.73 94.8099V115.28C163.73 119.488 167.142 122.9 171.35 122.9H194.65C198.858 122.9 202.27 119.488 202.27 115.28V94.8099C202.27 90.6015 198.858 87.1899 194.65 87.1899Z" fill="#F2FAFE"/>
<path d="M189.16 90.1899H177.02C171.514 90.1899 167.05 94.6537 167.05 100.16V109.94C167.05 115.446 171.514 119.91 177.02 119.91H189.16C194.666 119.91 199.13 115.446 199.13 109.94V100.16C199.13 94.6537 194.666 90.1899 189.16 90.1899Z" fill="white"/>
<path d="M183.91 96.8095L182.08 93.5796L185.68 93.5396L183.91 96.8095Z" fill="#E75524"/>
<path d="M170.26 100.29V104.04C169.35 103.86 168.66 103.09 168.66 102.16C168.66 101.24 169.35 100.47 170.26 100.28V100.29Z" fill="#BFC7D9"/>
<path d="M183.13 108.57V117.78H171.46C171.9 116.41 172.5 115.14 173.25 114C175.08 111.22 177.77 109.23 180.85 108.57H183.13Z" fill="#BFC7D9"/>
<path d="M194.62 117.78H171.39C171.83 116.41 172.46 115.13 173.22 114C175.05 111.27 177.71 109.33 180.75 108.67C180.93 108.63 181.1 108.6 181.28 108.57C181.85 108.48 182.42 108.43 183.01 108.43C188.32 108.43 192.85 112.32 194.62 117.78Z" stroke="#52688F" stroke-width="0.68" stroke-miterlimit="10"/>
<path d="M183.13 98.5098V108.33H174.55C172.39 108.33 170.64 106.59 170.64 104.44V97.1898C170.64 96.8898 170.68 96.5998 170.74 96.3198C170.74 96.2798 170.75 96.2498 170.77 96.2098C171.21 94.5398 172.73 93.2998 174.55 93.2998H180.05L183.13 98.5198V98.4998V98.5098Z" fill="#BFC7D9"/>
<path d="M186.12 93.2197H191.6H191.59C193.74 93.2197 195.48 94.9597 195.48 97.1097V104.36C195.48 106.5 193.73 108.24 191.59 108.24H174.54C172.39 108.24 170.65 106.5 170.65 104.36V97.1097C170.65 96.8397 170.68 96.5797 170.73 96.3297C170.74 96.2897 170.75 96.2597 170.76 96.2197C171.16 94.4997 172.7 93.2197 174.54 93.2197H186.12ZM186.12 93.2197L183.13 98.5197V98.5397L180.04 93.3197L180.02 93.2797L186.12 93.2197Z" stroke="#52688F" stroke-width="0.68" stroke-miterlimit="10"/>
<path d="M175.21 101.84C175.56 100.26 177.03 99.4896 177.99 99.8496C178.67 100.1 179.15 100.92 179.17 101.86" stroke="#52688F" stroke-width="0.68" stroke-miterlimit="10"/>
<path d="M190.8 101.59C190.32 100.04 188.8 99.3997 187.86 99.8297C187.2 100.13 186.79 100.99 186.84 101.93" fill="white"/>
<path d="M190.8 101.59C190.32 100.04 188.8 99.3997 187.86 99.8297C187.2 100.13 186.79 100.99 186.84 101.93" stroke="#52688F" stroke-width="0.68" stroke-miterlimit="10"/>
<path d="M185.26 103.45C185.26 104.65 184.29 105.62 183.09 105.62C181.89 105.62 180.92 104.65 180.92 103.45H185.26Z" fill="white" stroke="#52688F" stroke-width="0.68" stroke-miterlimit="10"/>
<path d="M197.48 102.17C197.48 103.27 196.59 104.17 195.48 104.17V100.17C196.58 100.17 197.48 101.06 197.48 102.17Z" fill="white" stroke="#52688F" stroke-width="0.68" stroke-miterlimit="10"/>
<path d="M170.66 100.26V104.08C170.52 104.08 170.39 104.07 170.26 104.04C169.35 103.86 168.66 103.09 168.66 102.16C168.66 101.23 169.35 100.47 170.26 100.28C170.39 100.26 170.52 100.24 170.66 100.24V100.26Z" stroke="#52688F" stroke-width="0.68" stroke-miterlimit="10"/>
<path d="M233.99 56.3899L236.44 53.9399" stroke="#F2FAFE" stroke-width="0.5" stroke-miterlimit="10" stroke-linecap="round"/>
<path d="M236.44 56.3899L233.99 53.9399" stroke="#F2FAFE" stroke-width="0.5" stroke-miterlimit="10" stroke-linecap="round"/>
<defs>
<linearGradient id="paint0_linear_208_275" x1="133" y1="262.22" x2="133" y2="-3.78" gradientUnits="userSpaceOnUse">
<stop stop-color="#A2DCEE"/>
<stop offset="0.32" stop-color="#A7DEF0"/>
<stop offset="0.89" stop-color="#B6E4F4"/>
</linearGradient>
</defs>
</svg>
