<svg width="234" height="234" viewBox="0 0 234 234" fill="none" xmlns="http://www.w3.org/2000/svg">
<g clip-path="url(#clip0_95_249)">
<path d="M223.29 0H10.71C4.79503 0 0 4.79503 0 10.71V223.29C0 229.205 4.79503 234 10.71 234H223.29C229.205 234 234 229.205 234 223.29V10.71C234 4.79503 229.205 0 223.29 0Z" fill="url(#paint0_linear_95_249)"/>
<path d="M171.43 161.65C160.68 163.8 149.62 156.2 142.43 143.26H91.5699C84.3699 156.19 73.32 163.8 62.58 161.65C47.12 158.58 38.1399 136.54 42.5299 112.44C46.6299 89.88 60.9599 73.51 75.4499 74H75.4599C76.4599 74.03 77.4499 74.15 78.4499 74.35C83.2499 75.31 87.4199 78.08 90.7799 82.2C97.3699 84.56 106.05 86.53 116.75 86.61C127.46 86.69 136.24 84.83 142.99 82.52C146.39 78.24 150.65 75.33 155.57 74.36C171.02 71.28 187.09 88.33 191.48 112.45C195.87 136.55 186.89 158.59 171.44 161.66L171.43 161.65Z" fill="#E4F5FD" stroke="white" stroke-width="2" stroke-miterlimit="10"/>
<path d="M157.33 138.28C168.53 138.28 177.61 129.2 177.61 118C177.61 106.8 168.53 97.72 157.33 97.72C146.13 97.72 137.05 106.8 137.05 118C137.05 129.2 146.13 138.28 157.33 138.28Z" stroke="white" stroke-width="2" stroke-miterlimit="10"/>
<path d="M79.8498 138.28C91.0502 138.28 100.13 129.2 100.13 118C100.13 106.8 91.0502 97.72 79.8498 97.72C68.6495 97.72 59.5698 106.8 59.5698 118C59.5698 129.2 68.6495 138.28 79.8498 138.28Z" stroke="white" stroke-width="2" stroke-miterlimit="10"/>
<path d="M157.33 113.43C159.395 113.43 161.07 111.756 161.07 109.69C161.07 107.624 159.395 105.95 157.33 105.95C155.264 105.95 153.59 107.624 153.59 109.69C153.59 111.756 155.264 113.43 157.33 113.43Z" fill="#8CD6ED"/>
<path d="M157.33 129.68C159.395 129.68 161.07 128.006 161.07 125.94C161.07 123.874 159.395 122.2 157.33 122.2C155.264 122.2 153.59 123.874 153.59 125.94C153.59 128.006 155.264 129.68 157.33 129.68Z" fill="#8CD6ED"/>
<path d="M148.89 121.74C150.955 121.74 152.63 120.066 152.63 118C152.63 115.934 150.955 114.26 148.89 114.26C146.824 114.26 145.15 115.934 145.15 118C145.15 120.066 146.824 121.74 148.89 121.74Z" fill="#8CD6ED"/>
<path d="M165.57 121.74C167.635 121.74 169.31 120.066 169.31 118C169.31 115.934 167.635 114.26 165.57 114.26C163.504 114.26 161.83 115.934 161.83 118C161.83 120.066 163.504 121.74 165.57 121.74Z" fill="#8CD6ED"/>
<path d="M79.8499 105.95V128.39" stroke="#8CD6ED" stroke-width="6" stroke-miterlimit="10"/>
<path d="M91.0699 117.17H68.6299" stroke="#8CD6ED" stroke-width="6" stroke-miterlimit="10"/>
<path d="M124.35 107.7H112.83C112.012 107.7 111.35 108.363 111.35 109.18V120.7C111.35 121.517 112.012 122.18 112.83 122.18H124.35C125.167 122.18 125.83 121.517 125.83 120.7V109.18C125.83 108.363 125.167 107.7 124.35 107.7Z" fill="#8CD6ED"/>
</g>
<defs>
<linearGradient id="paint0_linear_95_249" x1="117" y1="230.68" x2="117" y2="-3.32" gradientUnits="userSpaceOnUse">
<stop stop-color="#A2DCEE"/>
<stop offset="0.32" stop-color="#A7DEF0"/>
<stop offset="0.89" stop-color="#B6E4F4"/>
</linearGradient>
<clipPath id="clip0_95_249">
<rect width="234" height="234" fill="white"/>
</clipPath>
</defs>
</svg>
